<?xml version="1.0" standalone="no"?>
<!DOCTYPE svg PUBLIC "-//W3C//DTD SVG 20010904//EN"
 "http://www.w3.org/TR/2001/REC-SVG-20010904/DTD/svg10.dtd">
<svg version="1.0" xmlns="http://www.w3.org/2000/svg"
 width="1500.000000pt" height="1500.000000pt" viewBox="0 0 1500.000000 1500.000000"
 preserveAspectRatio="xMidYMid meet">
<metadata>
Created by potrace 1.14, written by Peter Selinger 2001-2017
</metadata>
<g transform="translate(0.000000,1500.000000) scale(0.100000,-0.100000)"
fill="#000000" stroke="none">
<path d="M7015 14989 c-1548 -103 -2997 -666 -4205 -1634 -1059 -849 -1876
-1979 -2349 -3251 -250 -673 -401 -1388 -451 -2139 -13 -193 -13 -737 0 -930
58 -879 248 -1679 587 -2480 93 -219 298 -626 417 -830 655 -1117 1591 -2053
2711 -2711 203 -119 611 -324 830 -417 801 -339 1601 -529 2480 -587 193 -13
737 -13 930 0 1046 69 1993 327 2910 790 304 153 483 258 765 445 851 564
1551 1264 2115 2115 187 282 292 461 445 765 463 917 721 1864 790 2910 5 83
10 292 10 465 0 422 -21 718 -76 1095 -194 1317 -731 2549 -1569 3595 -489
610 -1058 1129 -1715 1565 -282 187 -461 292 -765 445 -917 463 -1864 721
-2910 790 -174 11 -774 11 -950 -1z m3805 -2904 c323 -63 583 -204 810 -441
112 -117 182 -216 249 -351 113 -227 166 -502 141 -733 -20 -193 -78 -369
-163 -497 -29 -43 -343 -379 -854 -914 -444 -465 -816 -855 -825 -866 -17 -19
1 -81 478 -1659 535 -1766 523 -1722 495 -1851 -27 -130 -32 -136 -505 -611
-403 -405 -447 -446 -511 -478 -190 -94 -406 -21 -503 171 -11 22 -291 643
-622 1379 -674 1501 -631 1406 -641 1406 -10 0 -1884 -1810 -1887 -1823 -1 -7
72 -251 163 -542 182 -581 189 -612 161 -736 -29 -129 -49 -154 -445 -553
-201 -202 -392 -388 -424 -411 -72 -55 -139 -77 -230 -78 -120 0 -240 61 -305
156 -16 23 -231 463 -477 977 -246 514 -452 940 -459 947 -6 6 -423 192 -926
413 -503 221 -936 413 -961 426 -138 70 -224 236 -199 387 20 127 30 139 459
568 374 375 400 399 471 432 102 49 180 64 267 50 38 -6 302 -83 587 -172 285
-89 524 -161 532 -159 15 3 1834 1885 1834 1898 0 4 -609 303 -1352 665 -744
362 -1376 673 -1404 690 -114 72 -166 173 -168 320 -2 149 0 152 449 646 212
233 407 439 433 457 86 59 144 76 267 76 l110 0 1667 -532 c917 -293 1674
-532 1682 -532 7 0 364 367 792 816 430 451 808 838 844 865 126 96 308 171
500 205 97 17 356 11 470 -11z"/>
<path d="M10448 11450 c-67 -12 -137 -36 -179 -63 -20 -12 -399 -402 -842
-867 -443 -465 -831 -866 -862 -892 -94 -77 -227 -115 -347 -98 -36 5 -815
248 -1733 540 -917 292 -1671 529 -1675 528 -9 -4 -380 -412 -380 -418 1 -3
481 -239 1068 -525 1692 -824 1702 -829 1753 -873 90 -79 137 -214 118 -337
-16 -101 -51 -157 -184 -295 -67 -69 -573 -593 -1125 -1165 -553 -572 -1020
-1053 -1040 -1069 -19 -16 -60 -40 -90 -55 -48 -23 -68 -26 -155 -26 l-100 1
-550 172 -549 173 -170 -170 c-94 -94 -168 -172 -166 -174 3 -3 349 -156 770
-342 421 -185 785 -348 810 -363 55 -32 143 -113 181 -168 15 -22 186 -371
379 -775 194 -404 366 -761 382 -793 l30 -59 174 174 c96 96 174 178 174 182
0 5 -77 255 -172 555 l-172 547 -1 100 c0 94 2 105 33 168 32 64 95 127 1216
1210 955 923 1193 1148 1242 1174 114 61 244 61 357 1 120 -64 81 12 777
-1534 348 -775 635 -1411 637 -1414 2 -2 100 92 218 210 l214 215 -490 1615
c-269 888 -496 1648 -503 1688 -23 123 3 255 71 353 17 24 418 449 892 943
829 867 861 901 882 960 27 77 36 228 20 322 -62 353 -394 631 -776 649 -49 2
-111 0 -137 -5z"/>
</g>
</svg>
