<?xml version="1.0" encoding="UTF-8" standalone="no"?><!-- Generator: Gravit.io --><svg xmlns="http://www.w3.org/2000/svg" xmlns:xlink="http://www.w3.org/1999/xlink" style="isolation:isolate" viewBox="0 0 500 150"><g><path d=" M 94.26 33.15 L 116.66 9.45 C 116.67 9.43 116.68 9.42 116.69 9.41 C 117.09 9 117.52 8.62 117.97 8.27 C 118.42 7.9 118.9 7.57 119.41 7.27 C 120.7 6.53 122.09 5.97 123.54 5.62 C 124.96 5.27 126.41 5.1 127.88 5.11 C 130.46 5.12 133.02 5.61 135.42 6.57 C 137.91 7.54 140.19 8.98 142.13 10.81 C 144.18 12.73 145.8 15.05 146.91 17.62 C 147.94 20.04 148.48 22.64 148.49 25.28 C 148.51 27.65 148.04 30 147.11 32.19 C 146.62 33.36 145.92 34.43 145.05 35.35 L 121.32 60.4 L 135.76 108.65 C 135.76 108.67 135.77 108.68 135.77 108.69 C 135.92 109.22 136 109.77 135.99 110.32 C 135.99 111.06 135.86 111.79 135.6 112.48 C 135.33 113.25 134.89 113.96 134.33 114.55 C 134.31 114.57 134.29 114.59 134.27 114.61 L 122.92 126.07 C 122 127.04 120.71 127.59 119.38 127.59 C 117.47 127.55 115.75 126.38 115.03 124.61 L 96.49 83.01 L 67.9 110.9 L 72.76 126.62 C 72.76 126.64 72.77 126.65 72.77 126.66 C 72.93 127.21 73.01 127.77 73.01 128.34 C 73.01 129.07 72.88 129.8 72.62 130.49 C 72.35 131.26 71.91 131.96 71.35 132.56 C 71.33 132.57 71.31 132.59 71.29 132.61 L 61.13 142.88 C 60.2 143.85 58.92 144.4 57.58 144.4 C 55.71 144.36 54.01 143.24 53.25 141.52 L 40.17 114 L 12.98 101.91 C 11.21 101.19 10.04 99.47 10 97.55 C 10 96.23 10.53 94.96 11.48 94.04 L 21.64 83.77 C 21.66 83.76 21.68 83.74 21.7 83.72 C 22.29 83.15 23 82.7 23.77 82.42 C 24.46 82.16 25.19 82.03 25.93 82.03 C 26.51 82.02 27.08 82.1 27.63 82.27 C 27.64 82.28 27.66 82.28 27.67 82.28 L 43.17 87.18 L 70.95 58.11 L 30.62 38.27 C 28.93 37.48 27.83 35.78 27.8 33.91 C 27.8 32.66 28.27 31.46 29.12 30.54 L 39.38 19.14 C 39.4 19.12 39.41 19.1 39.43 19.09 C 40.01 18.46 40.73 17.97 41.52 17.66 C 42.24 17.37 43 17.22 43.77 17.22 C 44.35 17.22 44.92 17.3 45.48 17.47 C 45.49 17.48 45.5 17.48 45.51 17.48 L 94.26 33.15 Z  M 37.78 32.88 L 44.39 25.53 L 93.07 41.17 C 93.08 41.18 93.1 41.18 93.11 41.19 C 93.67 41.36 94.24 41.44 94.83 41.44 C 95.58 41.43 96.33 41.29 97.03 41.02 C 97.81 40.73 98.52 40.26 99.11 39.66 C 99.13 39.65 99.14 39.63 99.16 39.61 L 122.45 14.96 C 122.6 14.81 122.76 14.67 122.93 14.54 C 123.09 14.41 123.26 14.29 123.44 14.18 C 124.06 13.83 124.74 13.56 125.44 13.39 C 126.22 13.2 127.03 13.1 127.85 13.11 C 129.43 13.11 131.01 13.42 132.48 14.01 C 134.03 14.61 135.45 15.51 136.66 16.64 C 137.9 17.81 138.88 19.21 139.55 20.77 C 140.17 22.21 140.49 23.75 140.49 25.31 C 140.5 26.6 140.25 27.88 139.75 29.07 C 139.63 29.35 139.45 29.62 139.24 29.85 L 114.74 55.72 C 114.72 55.74 114.7 55.76 114.68 55.77 C 114.14 56.37 113.73 57.07 113.46 57.83 C 113.22 58.51 113.1 59.22 113.1 59.94 C 113.09 60.5 113.17 61.05 113.32 61.59 C 113.32 61.6 113.33 61.61 113.33 61.63 L 127.76 109.82 L 120.47 117.18 L 101.98 75.67 C 101.25 73.9 99.53 72.73 97.62 72.69 C 96.31 72.69 95.05 73.21 94.13 74.14 L 60.99 106.46 C 60.96 106.49 60.93 106.52 60.9 106.55 C 59.98 107.5 59.47 108.78 59.49 110.11 C 59.5 110.57 59.56 111.02 59.69 111.46 C 59.7 111.47 59.7 111.48 59.71 111.5 L 64.76 127.84 L 58.58 134.09 L 47.28 110.31 C 47.26 110.28 47.25 110.25 47.23 110.22 C 46.86 109.48 46.37 108.82 45.77 108.25 C 45.19 107.67 44.52 107.2 43.78 106.85 C 43.75 106.83 43.72 106.82 43.68 106.8 L 20.36 96.44 L 26.45 90.29 L 42.57 95.38 C 42.58 95.38 42.59 95.38 42.6 95.39 C 43.05 95.52 43.51 95.59 43.98 95.6 C 45.32 95.62 46.61 95.1 47.56 94.16 C 47.59 94.13 47.62 94.1 47.64 94.07 L 79.65 60.59 C 80.56 59.67 81.07 58.42 81.07 57.13 C 81.04 55.27 79.94 53.58 78.25 52.79 L 37.78 32.88 Z " fill-rule="evenodd" fill="rgb(0,139,239)"/><path d=" M 174.883 107.704 L 174.883 107.704 L 169.842 107.704 L 169.842 107.704 Q 168.671 107.704 168.671 106.624 L 168.671 106.624 L 168.671 85.56 L 168.671 85.56 Q 168.671 84.389 169.842 84.389 L 169.842 84.389 L 175.513 84.389 L 175.513 84.389 Q 176.593 84.389 176.593 85.56 L 176.593 85.56 L 176.593 87.45 L 176.593 87.45 Q 176.593 89.16 178.663 91.996 L 178.663 91.996 L 178.663 91.996 Q 180.734 94.831 182.804 96.632 L 182.804 96.632 L 182.804 96.632 Q 184.875 98.432 188.34 99.737 L 188.34 99.737 L 188.34 99.737 Q 191.806 101.043 195.857 101.043 L 195.857 101.043 L 195.857 101.043 Q 202.788 101.043 206.704 98.162 L 206.704 98.162 L 206.704 98.162 Q 210.62 95.281 210.62 90.15 L 210.62 90.15 L 210.62 90.15 Q 210.62 87.18 208.414 85.064 L 208.414 85.064 L 208.414 85.064 Q 206.209 82.949 202.698 81.689 L 202.698 81.689 L 202.698 81.689 Q 199.187 80.429 194.911 79.348 L 194.911 79.348 L 194.911 79.348 Q 190.636 78.268 186.36 76.873 L 186.36 76.873 L 186.36 76.873 Q 182.084 75.478 178.573 73.542 L 178.573 73.542 L 178.573 73.542 Q 175.063 71.607 172.857 68.141 L 172.857 68.141 L 172.857 68.141 Q 170.652 64.676 170.652 59.995 L 170.652 59.995 L 170.652 59.995 Q 170.652 52.433 176.368 47.482 L 176.368 47.482 L 176.368 47.482 Q 182.084 42.531 191.716 42.531 L 191.716 42.531 L 191.716 42.531 Q 203.868 42.531 209.539 49.643 L 209.539 49.643 L 209.359 44.062 L 209.359 44.062 Q 209.359 42.981 210.529 42.981 L 210.529 42.981 L 215.57 42.981 L 215.57 42.981 Q 216.651 42.981 216.651 44.062 L 216.651 44.062 L 216.651 63.685 L 216.651 63.685 Q 216.651 64.766 215.57 64.766 L 215.57 64.766 L 209.899 64.766 L 209.899 64.766 Q 208.819 64.766 208.819 63.685 L 208.819 63.685 L 208.819 61.165 L 208.819 61.165 Q 208.819 57.474 204.678 53.693 L 204.678 53.693 L 204.678 53.693 Q 200.538 49.913 192.526 49.913 L 192.526 49.913 L 192.526 49.913 Q 186.585 49.913 182.939 52.748 L 182.939 52.748 L 182.939 52.748 Q 179.294 55.584 179.294 59.995 L 179.294 59.995 L 179.294 59.995 Q 179.294 63.145 181.544 65.396 L 181.544 65.396 L 181.544 65.396 Q 183.794 67.646 187.395 68.996 L 187.395 68.996 L 187.395 68.996 Q 190.996 70.347 195.317 71.472 L 195.317 71.472 L 195.317 71.472 Q 199.637 72.597 203.958 73.947 L 203.958 73.947 L 203.958 73.947 Q 208.279 75.298 211.88 77.188 L 211.88 77.188 L 211.88 77.188 Q 215.48 79.078 217.731 82.364 L 217.731 82.364 L 217.731 82.364 Q 219.981 85.65 219.981 90.15 L 219.981 90.15 L 219.981 90.15 Q 219.981 98.072 214.31 103.203 L 214.31 103.203 L 214.31 103.203 Q 208.639 108.334 197.387 108.334 L 197.387 108.334 L 197.387 108.334 Q 189.105 108.334 183.704 105.003 L 183.704 105.003 L 183.704 105.003 Q 178.303 101.673 175.873 97.802 L 175.873 97.802 L 175.963 106.624 L 175.963 106.624 Q 175.963 107.704 174.883 107.704 Z  M 276.722 107.704 L 276.722 107.704 L 271.861 107.704 L 271.861 107.704 Q 269.071 107.704 267.09 104.913 L 267.09 104.913 L 251.157 83.309 L 242.426 91.411 L 242.426 101.673 L 247.197 101.673 L 247.197 101.673 Q 248.367 101.673 248.367 102.753 L 248.367 102.753 L 248.367 106.624 L 248.367 106.624 Q 248.367 107.704 247.197 107.704 L 247.197 107.704 L 230.003 107.704 L 230.003 107.704 Q 228.833 107.704 228.833 106.624 L 228.833 106.624 L 228.833 102.753 L 228.833 102.753 Q 228.833 101.673 230.003 101.673 L 230.003 101.673 L 234.954 101.673 L 234.954 49.103 L 230.003 49.103 L 230.003 49.103 Q 228.833 49.103 228.833 48.022 L 228.833 48.022 L 228.833 44.152 L 228.833 44.152 Q 228.833 43.071 230.003 43.071 L 230.003 43.071 L 241.345 43.071 L 241.345 43.071 Q 242.426 43.071 242.426 44.152 L 242.426 44.152 L 242.426 84.479 L 258.809 69.446 L 255.568 69.446 L 255.568 69.446 Q 254.488 69.446 254.488 68.366 L 254.488 68.366 L 254.488 64.496 L 254.488 64.496 Q 254.488 63.415 255.568 63.415 L 255.568 63.415 L 272.851 63.415 L 272.851 63.415 Q 273.932 63.415 273.932 64.496 L 273.932 64.496 L 273.932 68.366 L 273.932 68.366 Q 273.932 69.446 272.851 69.446 L 272.851 69.446 L 267 69.446 L 256.018 79.078 L 272.851 101.673 L 276.722 101.673 L 276.722 101.673 Q 277.802 101.673 277.802 102.753 L 277.802 102.753 L 277.802 106.624 L 277.802 106.624 Q 277.802 107.704 276.722 107.704 Z  M 302.047 106.714 L 300.877 106.714 L 300.877 106.714 Q 299.437 106.714 298.536 104.463 L 298.536 104.463 L 284.764 69.446 L 279.813 69.446 L 279.813 69.446 Q 278.733 69.446 278.733 68.366 L 278.733 68.366 L 278.733 64.496 L 278.733 64.496 Q 278.733 63.415 279.813 63.415 L 279.813 63.415 L 296.106 63.415 L 296.106 63.415 Q 297.276 63.415 297.276 64.496 L 297.276 64.496 L 297.276 68.366 L 297.276 68.366 Q 297.276 69.446 296.106 69.446 L 296.106 69.446 L 292.415 69.446 L 304.027 99.962 L 304.207 99.962 L 315.01 69.446 L 310.959 69.446 L 310.959 69.446 Q 309.879 69.446 309.879 68.366 L 309.879 68.366 L 309.879 64.496 L 309.879 64.496 Q 309.879 63.415 310.959 63.415 L 310.959 63.415 L 327.702 63.415 L 327.702 63.415 Q 328.782 63.415 328.782 64.496 L 328.782 64.496 L 328.782 68.366 L 328.782 68.366 Q 328.782 69.446 327.702 69.446 L 327.702 69.446 L 322.661 69.446 L 306.638 113.465 L 306.638 113.465 Q 303.667 121.476 300.472 125.122 L 300.472 125.122 L 300.472 125.122 Q 297.276 128.768 291.74 128.768 L 291.74 128.768 L 291.74 128.768 Q 286.204 128.768 282.243 125.257 L 282.243 125.257 L 282.243 125.257 Q 281.343 124.357 281.973 123.637 L 281.973 123.637 L 284.224 120.756 L 284.224 120.756 Q 285.034 120.126 285.844 120.666 L 285.844 120.666 L 285.844 120.666 Q 288.004 122.377 290.975 122.377 L 290.975 122.377 L 290.975 122.377 Q 293.945 122.377 295.881 120.351 L 295.881 120.351 L 295.881 120.351 Q 297.816 118.326 299.617 113.375 L 299.617 113.375 L 302.047 106.714 L 302.047 106.714 Z  M 352.127 107.704 L 352.127 107.704 L 334.933 107.704 L 334.933 107.704 Q 333.763 107.704 333.763 106.624 L 333.763 106.624 L 333.763 102.753 L 333.763 102.753 Q 333.763 101.673 334.933 101.673 L 334.933 101.673 L 339.884 101.673 L 339.884 49.103 L 334.933 49.103 L 334.933 49.103 Q 333.763 49.103 333.763 48.022 L 333.763 48.022 L 333.763 44.152 L 333.763 44.152 Q 333.763 43.071 334.933 43.071 L 334.933 43.071 L 344.925 43.071 L 344.925 43.071 Q 347.356 43.071 347.356 45.322 L 347.356 45.322 L 347.356 101.673 L 352.127 101.673 L 352.127 101.673 Q 353.297 101.673 353.297 102.753 L 353.297 102.753 L 353.297 106.624 L 353.297 106.624 Q 353.297 107.704 352.127 107.704 Z  M 379.702 107.704 L 379.702 107.704 L 362.509 107.704 L 362.509 107.704 Q 361.338 107.704 361.338 106.624 L 361.338 106.624 L 361.338 102.753 L 361.338 102.753 Q 361.338 101.673 362.509 101.673 L 362.509 101.673 L 367.46 101.673 L 367.46 69.446 L 362.509 69.446 L 362.509 69.446 Q 361.338 69.446 361.338 68.366 L 361.338 68.366 L 361.338 64.496 L 361.338 64.496 Q 361.338 63.415 362.509 63.415 L 362.509 63.415 L 373.851 63.415 L 373.851 63.415 Q 374.931 63.415 374.931 64.496 L 374.931 64.496 L 374.931 101.673 L 379.702 101.673 L 379.702 101.673 Q 380.872 101.673 380.872 102.753 L 380.872 102.753 L 380.872 106.624 L 380.872 106.624 Q 380.872 107.704 379.702 107.704 Z  M 374.616 50.093 L 374.616 50.093 L 374.616 50.093 Q 376.101 51.623 376.101 53.693 L 376.101 53.693 L 376.101 53.693 Q 376.101 55.764 374.616 57.204 L 374.616 57.204 L 374.616 57.204 Q 373.131 58.644 371.06 58.644 L 371.06 58.644 L 371.06 58.644 Q 368.99 58.644 367.505 57.204 L 367.505 57.204 L 367.505 57.204 Q 366.019 55.764 366.019 53.693 L 366.019 53.693 L 366.019 53.693 Q 366.019 51.623 367.505 50.093 L 367.505 50.093 L 367.505 50.093 Q 368.99 48.562 371.06 48.562 L 371.06 48.562 L 371.06 48.562 Q 373.131 48.562 374.616 50.093 Z  M 436.803 107.704 L 436.803 107.704 L 428.251 107.704 L 428.251 107.704 Q 424.38 107.704 424.38 103.923 L 424.38 103.923 L 424.38 80.249 L 424.38 80.249 Q 424.38 75.028 421.86 72.147 L 421.86 72.147 L 421.86 72.147 Q 419.34 69.266 414.479 69.266 L 414.479 69.266 L 414.479 69.266 Q 407.547 69.266 403.677 74.938 L 403.677 74.938 L 403.677 74.938 Q 403.226 75.478 402.506 76.918 L 402.506 76.918 L 402.506 101.673 L 407.277 101.673 L 407.277 101.673 Q 408.447 101.673 408.447 102.753 L 408.447 102.753 L 408.447 106.624 L 408.447 106.624 Q 408.447 107.704 407.277 107.704 L 407.277 107.704 L 390.084 107.704 L 390.084 107.704 Q 388.914 107.704 388.914 106.624 L 388.914 106.624 L 388.914 102.753 L 388.914 102.753 Q 388.914 101.673 390.084 101.673 L 390.084 101.673 L 395.035 101.673 L 395.035 69.446 L 390.084 69.446 L 390.084 69.446 Q 388.914 69.446 388.914 68.366 L 388.914 68.366 L 388.914 64.496 L 388.914 64.496 Q 388.914 63.415 390.084 63.415 L 390.084 63.415 L 400.616 63.415 L 400.616 63.415 Q 401.786 63.415 401.786 64.496 L 401.786 64.496 L 401.606 70.617 L 401.876 70.617 L 401.876 70.617 Q 406.557 62.785 416.369 62.785 L 416.369 62.785 L 416.369 62.785 Q 423.57 62.785 427.621 67.016 L 427.621 67.016 L 427.621 67.016 Q 431.672 71.247 431.762 78.448 L 431.762 78.448 L 431.762 101.673 L 436.803 101.673 L 436.803 101.673 Q 437.973 101.673 437.973 102.753 L 437.973 102.753 L 437.973 106.624 L 437.973 106.624 Q 437.973 107.704 436.803 107.704 Z  M 483.732 86.46 L 483.732 86.46 L 451.326 86.46 L 451.326 86.46 Q 451.686 93.931 456.052 97.982 L 456.052 97.982 L 456.052 97.982 Q 460.417 102.033 465.908 102.033 L 465.908 102.033 L 465.908 102.033 Q 471.399 102.033 475.315 99.692 L 475.315 99.692 L 475.315 99.692 Q 479.231 97.352 480.581 95.101 L 480.581 95.101 L 480.581 95.101 Q 481.301 94.201 482.202 94.831 L 482.202 94.831 L 484.632 97.262 L 484.632 97.262 Q 485.172 97.802 485.172 98.207 L 485.172 98.207 L 485.172 98.207 Q 485.172 98.612 484.767 99.242 L 484.767 99.242 L 484.767 99.242 Q 484.362 99.872 483.102 101.223 L 483.102 101.223 L 483.102 101.223 Q 481.841 102.573 479.546 104.283 L 479.546 104.283 L 479.546 104.283 Q 477.251 105.993 473.605 107.164 L 473.605 107.164 L 473.605 107.164 Q 469.959 108.334 465.818 108.334 L 465.818 108.334 L 465.818 108.334 Q 456.367 108.334 450.02 102.123 L 450.02 102.123 L 450.02 102.123 Q 443.674 95.912 443.674 85.425 L 443.674 85.425 L 443.674 85.425 Q 443.674 74.938 449.975 68.861 L 449.975 68.861 L 449.975 68.861 Q 456.277 62.785 465.413 62.785 L 465.413 62.785 L 465.413 62.785 Q 474.55 62.785 479.771 68.681 L 479.771 68.681 L 479.771 68.681 Q 484.992 74.577 484.992 84.569 L 484.992 84.569 L 484.992 84.569 Q 484.992 84.929 484.992 85.289 L 484.992 85.289 L 484.992 85.289 Q 484.992 86.46 483.732 86.46 Z  M 477.521 80.969 L 477.521 80.969 Q 477.251 75.388 474.01 72.057 L 474.01 72.057 L 474.01 72.057 Q 470.769 68.726 465.368 68.726 L 465.368 68.726 L 465.368 68.726 Q 459.967 68.726 456.097 71.787 L 456.097 71.787 L 456.097 71.787 Q 452.226 74.847 451.506 80.969 L 451.506 80.969 L 477.521 80.969 L 477.521 80.969 Z " fill="rgb(0,139,239)"/></g></svg>
